<svg width="960" height="540" xmlns="http://www.w3.org/2000/svg"><path d="m0 147 14.5 11.7c14.5 11.6 43.5 35 72.7 34 29.1-1 58.5-26.4 87.6-28.2 29.2-1.8 58.2 19.8 87.2 16.3s58-32.1 87-36.6 58 15.1 87.2 19.6c29.1 4.5 58.5-6.1 87.6-17C553 136 582 125 611 118.7c29-6.4 58-8 87-4.4 29 3.7 58 12.7 87.2 30.7 29.1 18 58.5 45 87.6 48.7 29.2 3.6 58.2-16 72.7-25.9L960 158V0H0Z" fill="#c0fffb"/><path d="m0 255 14.5 1.8c14.5 1.9 43.5 5.5 72.7 1 29.1-4.5 58.5-17.1 87.6-18.1 29.2-1 58.2 9.6 87.2-2 29-11.7 58-45.7 87-45.7s58 34 87.2 42c29.1 8 58.5-10 87.6-26.2 29.2-16.1 58.2-30.5 87.2-35s58 .9 87 13.5c29 12.7 58 32.7 87.2 54.4 29.1 21.6 58.5 45 87.6 43.1C902 282 931 255 945.5 241.5L960 228v-72l-14.5 9.8c-14.5 9.9-43.5 29.5-72.7 25.9-29.1-3.7-58.5-30.7-87.6-48.7-29.2-18-58.2-27-87.2-30.7-29-3.6-58-2-87 4.4-29 6.3-58 17.3-87.2 28.1-29.1 10.9-58.5 21.5-87.6 17-29.2-4.5-58.2-24.1-87.2-19.6s-58 33.1-87 36.6-58-18.1-87.2-16.3c-29.1 1.8-58.5 27.2-87.6 28.2-29.2 1-58.2-22.4-72.7-34L0 145Z" fill="#ddfffc"/><path d="m0 325 14.5-3.7c14.5-3.6 43.5-11 72.7-13.6 29.1-2.7 58.5-.7 87.6 3 29.2 3.6 58.2 9 87.2-3.7s58-43.3 87-44.2c29-.8 58 28.2 87.2 36.4 29.1 8.1 58.5-4.5 87.6-23.5 29.2-19 58.2-44.4 87.2-50.7 29-6.3 58 6.3 87 20.8s58 30.9 87.2 54.2c29.1 23.3 58.5 53.7 87.6 58.2 29.2 4.5 58.2-16.9 72.7-27.5L960 320v-94l-14.5 13.5C931 253 902 280 872.8 281.8c-29.1 1.9-58.5-21.5-87.6-43.1C756 217 727 197 698 184.3c-29-12.6-58-18-87-13.5s-58 18.9-87.2 35C494.7 222 465.3 240 436.2 232c-29.2-8-58.2-42-87.2-42s-58 34-87 45.7c-29 11.6-58 1-87.2 2-29.1 1-58.5 13.6-87.6 18.1-29.2 4.5-58.2.9-72.7-1L0 253Z" fill="#edfffd"/><path d="m0 444 14.5 7.2c14.5 7.1 43.5 21.5 72.7 26 29.1 4.5 58.5-.9 87.6-17C204 444 233 417 262 404.3c29-12.6 58-11 87-7.5s58 8.9 87.2 21.5c29.1 12.7 58.5 32.7 87.6 29.2C553 444 582 417 611 407s58-3 87-.3c29 2.6 58 1 87.2 11 29.1 10 58.5 31.6 87.6 35.3 29.2 3.7 58.2-10.7 72.7-17.8L960 428V318l-14.5 10.7c-14.5 10.6-43.5 32-72.7 27.5-29.1-4.5-58.5-34.9-87.6-58.2-29.2-23.3-58.2-39.7-87.2-54.2s-58-27.1-87-20.8c-29 6.3-58 31.7-87.2 50.7-29.1 19-58.5 31.6-87.6 23.5C407 289 378 260 349 260.8c-29 .9-58 31.5-87 44.2-29 12.7-58 7.3-87.2 3.7-29.1-3.7-58.5-5.7-87.6-3-29.2 2.6-58.2 10-72.7 13.6L0 323Z" fill="#ddfffc"/><path d="M0 541H960V426l-14.5 7.2c-14.5 7.1-43.5 21.5-72.7 17.8-29.1-3.7-58.5-25.3-87.6-35.3-29.2-10-58.2-8.4-87.2-11-29-2.7-58-9.7-87 .3s-58 37-87.2 40.5c-29.1 3.5-58.5-16.5-87.6-29.2-29.2-12.6-58.2-18-87.2-21.5s-58-5.1-87 7.5c-29 12.7-58 39.7-87.2 55.9-29.1 16.1-58.5 21.5-87.6 17-29.2-4.5-58.2-18.9-72.7-26L0 442Z" fill="#c0fffb"/></svg>