<svg xmlns="http://www.w3.org/2000/svg" data-name="Layer 1" width="920.297" height="567.136"><path d="M910.386 372.27H269.797a9.922 9.922 0 0 1-9.91-9.911V9.91A9.922 9.922 0 0 1 269.797 0h640.59a9.922 9.922 0 0 1 9.91 9.91V362.36a9.922 9.922 0 0 1-9.91 9.91Z" fill="#e6e6e6"/><path d="M896.872 358.755h-613.56a9.922 9.922 0 0 1-9.91-9.91V23.424a9.922 9.922 0 0 1 9.91-9.91h613.56a9.922 9.922 0 0 1 9.91 9.91v325.42a9.922 9.922 0 0 1-9.91 9.91Z" fill="#fff"/><path d="M455 214.304H339.57a4.815 4.815 0 0 1-4.81-4.81V89.277a4.815 4.815 0 0 1 4.81-4.81H455a4.815 4.815 0 0 1 4.81 4.81v120.217a4.815 4.815 0 0 1-4.81 4.81ZM339.57 86.39a2.889 2.889 0 0 0-2.886 2.886v120.217a2.889 2.889 0 0 0 2.886 2.886H455a2.889 2.889 0 0 0 2.886-2.886V89.277A2.889 2.889 0 0 0 455 86.391ZM647.808 214.304H532.376a4.815 4.815 0 0 1-4.81-4.81V89.277a4.815 4.815 0 0 1 4.81-4.81h115.432a4.815 4.815 0 0 1 4.81 4.81v120.217a4.815 4.815 0 0 1-4.81 4.81ZM532.376 86.39a2.889 2.889 0 0 0-2.886 2.886v120.217a2.889 2.889 0 0 0 2.886 2.886h115.432a2.889 2.889 0 0 0 2.885-2.886V89.277a2.889 2.889 0 0 0-2.885-2.886ZM840.615 214.304H725.183a4.815 4.815 0 0 1-4.81-4.81V89.277a4.815 4.815 0 0 1 4.81-4.81h115.432a4.815 4.815 0 0 1 4.81 4.81v120.217a4.815 4.815 0 0 1-4.81 4.81ZM725.183 86.39a2.889 2.889 0 0 0-2.885 2.886v120.217a2.889 2.889 0 0 0 2.885 2.886h115.432a2.889 2.889 0 0 0 2.886-2.886V89.277a2.889 2.889 0 0 0-2.886-2.886Z" fill="#3f3d56"/><path d="M374.994 287.802a3.265 3.265 0 1 0 .003-6.53h-29.302a3.265 3.265 0 1 0 0 6.53h29.3ZM448.874 268.564a3.265 3.265 0 1 0 .012-6.531H345.695a3.265 3.265 0 0 0 0 6.53ZM567.802 287.802a3.265 3.265 0 0 0 0-6.53h-29.3a3.265 3.265 0 1 0 0 6.53ZM641.681 268.564a3.265 3.265 0 0 0 0-6.531H538.502a3.265 3.265 0 0 0 0 6.53ZM760.61 287.802a3.265 3.265 0 0 0 0-6.53h-29.3a3.265 3.265 0 1 0-.003 6.53h29.302ZM834.489 268.564a3.265 3.265 0 0 0 0-6.531h-103.18a3.265 3.265 0 1 0-.011 6.53h103.19Z" fill="#e6e6e6"/><path d="M448.874 249.643a3.265 3.265 0 0 0 .003-6.53H345.695a3.265 3.265 0 1 0 0 6.53h103.179ZM641.681 249.643a3.265 3.265 0 0 0 0-6.53H538.502a3.265 3.265 0 1 0 0 6.53ZM834.489 249.643a3.265 3.265 0 0 0 0-6.53h-103.18a3.265 3.265 0 0 0-.002 6.53h103.182Z" fill="#00bfa6"/><path d="M430.404 191.006a3.265 3.265 0 0 0 0-6.531h-66.24a3.265 3.265 0 1 0-.011 6.53h66.251ZM430.404 171.767a3.265 3.265 0 0 0 0-6.53h-66.24a3.265 3.265 0 1 0-.011 6.53h66.251Z" fill="#e6e6e6"/><circle cx="397.284" cy="128.488" r="20.722" fill="#00bfa6"/><path d="M623.211 191.006a3.265 3.265 0 0 0 0-6.531h-66.239a3.265 3.265 0 0 0 0 6.53ZM623.211 171.767a3.265 3.265 0 0 0 0-6.53h-66.239a3.265 3.265 0 0 0 0 6.53Z" fill="#e6e6e6"/><circle cx="590.092" cy="128.488" r="20.722" fill="#00bfa6"/><path d="M816.019 191.006a3.265 3.265 0 1 0 .012-6.531H749.78a3.265 3.265 0 0 0 0 6.53ZM816.019 171.767a3.265 3.265 0 1 0 .012-6.53H749.78a3.265 3.265 0 0 0 0 6.53Z" fill="#e6e6e6"/><circle cx="782.899" cy="128.488" r="20.722" fill="#00bfa6"/><path fill="#ffb6b6" d="M69.4 554.299h12.26l5.832-47.288-18.094.001.002 47.287z"/><path d="m66.272 550.297 24.144-.001h.001a15.387 15.387 0 0 1 15.387 15.386v.5l-39.53.001Z" fill="#2f2e41"/><path fill="#ffb6b6" d="M111.4 554.299h12.26l5.832-47.288-18.094.001.002 47.287z"/><path d="m108.272 550.297 24.144-.001h.001a15.387 15.387 0 0 1 15.387 15.386v.5l-39.53.001ZM157.987 348.297l-29.949 184.985-20-1 .496-169.855 49.453-14.13z" fill="#2f2e41"/><path d="m77.248 291.78 72.665 1.009 8.074 55.508-49.453 23.213-21.496 156.772-19-1L61.1 333.16Z" fill="#2f2e41"/><circle cx="120.645" cy="126.263" r="22.203" fill="#ffb9b9"/><path fill="#e4e4e4" d="m131.038 161.282 12.82 16.453-6.056 126.155-47.434-1.009-8.074-110.007 10.092-28.259 3.652-6.333 35 3z"/><path d="m152.94 225.17 11.103 42.388-11.102 42.388 18.166 24.222 16.148-76.703s-12.11-62.573-13.12-69.638-3.028-8.074-3.028-8.074l-8.074 1.01ZM72.202 241.317l-7.065 13.121-2.019 22.203 4.037 25.231-14.129 23.213-14.129-63.583 15.138-81.749h6.056l12.111 61.564zM101.443 132.015l-.526 8.975s-6.512-14.727-7.522-29.865 16.148-18.167 26.24-19.176 27.25 6.056 27.25 14.13-18.166 6.055-25.23 4.037-10.093 15.138-10.093 15.138l-4.037 1.01Z" fill="#2f2e41"/><path d="m155.969 239.299-4.037 38.351 8.074 23.213 5.046 22.203s0 21.194-20.185 22.203-78.721-1.009-78.721-1.009-8.074-1.009-15.139-17.157 14.13-31.286 14.13-31.286l6.055-21.195-2.018-26.24-14.13-68.629 41.884-21.698 10.597 103.447 22.708-100.42 7.57 5.551 32.295 13.12Z" fill="#2f2e41"/><path fill="#3f3d56" d="M257.738 567.136H0v-2.106h258.12l-.382 2.106z"/></svg>