<svg id="visual" viewBox="0 0 960 540" width="960" height="540" xmlns="http://www.w3.org/2000/svg" xmlns:xlink="http://www.w3.org/1999/xlink" version="1.1"><rect x="0" y="0" width="960" height="540" fill="#edfffd"></rect><path d="M0 220L20 210C40 200 80 180 120 191C160 202 200 244 240 272.2C280 300.3 320 314.7 360 309.8C400 305 440 281 480 250.5C520 220 560 183 600 194.8C640 206.7 680 267.3 720 274.8C760 282.3 800 236.7 840 204.3C880 172 920 153 940 143.5L960 134L960 0L940 0C920 0 880 0 840 0C800 0 760 0 720 0C680 0 640 0 600 0C560 0 520 0 480 0C440 0 400 0 360 0C320 0 280 0 240 0C200 0 160 0 120 0C80 0 40 0 20 0L0 0Z" fill="#00393a" stroke-linecap="round" stroke-linejoin="miter"></path></svg>