<svg id="visual" viewBox="0 0 960 540" width="960" height="540" xmlns="http://www.w3.org/2000/svg" xmlns:xlink="http://www.w3.org/1999/xlink" version="1.1"><rect x="0" y="0" width="960" height="540" fill="#edfffd"></rect><defs><linearGradient id="grad1_0" x1="43.8%" y1="0%" x2="100%" y2="100%"><stop offset="14.444444444444446%" stop-color="#edfffd" stop-opacity="1"></stop><stop offset="85.55555555555554%" stop-color="#edfffd" stop-opacity="1"></stop></linearGradient></defs><defs><linearGradient id="grad2_0" x1="0%" y1="0%" x2="56.3%" y2="100%"><stop offset="14.444444444444446%" stop-color="#edfffd" stop-opacity="1"></stop><stop offset="85.55555555555554%" stop-color="#edfffd" stop-opacity="1"></stop></linearGradient></defs><g transform="translate(960, 0)"><path d="M0 378C-44.5 354 -89.1 330 -127.1 306.7C-165 283.5 -196.4 260.9 -236.2 236.2C-276 211.4 -324.2 184.4 -349.2 144.7C-374.3 104.9 -376.1 52.5 -378 0L0 0Z" fill="#00393a"></path></g><g transform="translate(0, 540)"><path d="M0 -378C38.1 -339.4 76.2 -300.9 116.3 -280.9C156.5 -260.9 198.7 -259.4 241.1 -241.1C283.6 -222.8 326.4 -187.7 349.2 -144.7C372.1 -101.7 375 -50.8 378 0L0 0Z" fill="#00393a"></path></g></svg>