<svg id="visual" viewBox="0 0 960 540" width="960" height="540" xmlns="http://www.w3.org/2000/svg" xmlns:xlink="http://www.w3.org/1999/xlink" version="1.1"><rect x="0" y="0" width="960" height="540" fill="#edfffd"></rect><defs><linearGradient id="grad1_0" x1="43.8%" y1="0%" x2="100%" y2="100%"><stop offset="14.444444444444446%" stop-color="#00393a" stop-opacity="1"></stop><stop offset="85.55555555555554%" stop-color="#00393a" stop-opacity="1"></stop></linearGradient></defs><defs><linearGradient id="grad1_1" x1="43.8%" y1="0%" x2="100%" y2="100%"><stop offset="14.444444444444446%" stop-color="#00393a" stop-opacity="1"></stop><stop offset="85.55555555555554%" stop-color="#769695" stop-opacity="1"></stop></linearGradient></defs><defs><linearGradient id="grad1_2" x1="43.8%" y1="0%" x2="100%" y2="100%"><stop offset="14.444444444444446%" stop-color="#edfffd" stop-opacity="1"></stop><stop offset="85.55555555555554%" stop-color="#769695" stop-opacity="1"></stop></linearGradient></defs><defs><linearGradient id="grad2_0" x1="0%" y1="0%" x2="56.3%" y2="100%"><stop offset="14.444444444444446%" stop-color="#00393a" stop-opacity="1"></stop><stop offset="85.55555555555554%" stop-color="#00393a" stop-opacity="1"></stop></linearGradient></defs><defs><linearGradient id="grad2_1" x1="0%" y1="0%" x2="56.3%" y2="100%"><stop offset="14.444444444444446%" stop-color="#769695" stop-opacity="1"></stop><stop offset="85.55555555555554%" stop-color="#00393a" stop-opacity="1"></stop></linearGradient></defs><defs><linearGradient id="grad2_2" x1="0%" y1="0%" x2="56.3%" y2="100%"><stop offset="14.444444444444446%" stop-color="#769695" stop-opacity="1"></stop><stop offset="85.55555555555554%" stop-color="#edfffd" stop-opacity="1"></stop></linearGradient></defs><g transform="translate(960, 0)"><path d="M0 378C-48.5 372.3 -97 366.5 -144.7 349.2C-192.3 331.9 -239 303.1 -263 263C-287.1 223 -288.6 171.6 -304 125.9C-319.3 80.2 -348.7 40.1 -378 0L0 0Z" fill="#b0c9c7"></path><path d="M0 252C-32.3 248.2 -64.7 244.3 -96.4 232.8C-128.2 221.3 -159.3 202.1 -175.4 175.4C-191.4 148.6 -192.4 114.4 -202.6 83.9C-212.9 53.5 -232.4 26.7 -252 0L0 0Z" fill="#3f6665"></path><path d="M0 126C-16.2 124.1 -32.3 122.2 -48.2 116.4C-64.1 110.6 -79.7 101 -87.7 87.7C-95.7 74.3 -96.2 57.2 -101.3 42C-106.4 26.7 -116.2 13.4 -126 0L0 0Z" fill="#00393a"></path></g><g transform="translate(0, 540)"><path d="M0 -378C36.2 -343.4 72.4 -308.8 122.8 -296.6C173.3 -284.3 238 -294.3 267.3 -267.3C296.6 -240.3 290.5 -176.2 303 -125.5C315.6 -74.8 346.8 -37.4 378 0L0 0Z" fill="#b0c9c7"></path><path d="M0 -252C24.1 -228.9 48.3 -205.9 81.9 -197.7C115.5 -189.5 158.7 -196.2 178.2 -178.2C197.7 -160.2 193.7 -117.5 202 -83.7C210.4 -49.9 231.2 -24.9 252 0L0 0Z" fill="#3f6665"></path><path d="M0 -126C12.1 -114.5 24.1 -102.9 40.9 -98.9C57.8 -94.8 79.3 -98.1 89.1 -89.1C98.9 -80.1 96.8 -58.7 101 -41.8C105.2 -24.9 115.6 -12.5 126 0L0 0Z" fill="#00393a"></path></g></svg>