<svg width="960" height="540" xmlns="http://www.w3.org/2000/svg"><path fill="#edfffd" d="M0 0h960v540H0z"/><path d="M960 378c-29.8-13-59.6-25.9-92.9-31.2-33.3-5.3-70.1-3-96.1-19.4-26-16.5-41.3-51.8-57.8-80.6-16.5-28.9-34.3-51.4-48.5-76.3-14.2-24.9-24.8-52.4-37.9-81.2-13.2-28.8-29-59.1-44.8-89.3h378Z" fill="#769695"/><path d="M960 189c-14.9-6.5-29.8-13-46.5-15.6-16.6-2.7-35-1.5-48-9.7s-20.6-25.9-28.9-40.3c-8.3-14.4-17.2-25.7-24.3-38.1-7.1-12.5-12.3-26.2-18.9-40.7C786.8 30.2 778.9 15.1 771 0h189Z" fill="#00393a"/><path d="M0 162c34.1 6.8 68.3 13.6 92.1 34.1 23.9 20.5 37.4 54.8 68.9 65 31.5 10.3 80.8-3.3 106.3 11.6 25.4 14.9 27 58.5 37.5 91.3 10.6 32.8 30.2 55 43.9 82.6 13.7 27.5 21.5 60.5 29.3 93.4H0Z" fill="#769695"/><path d="M0 351c17.1 3.4 34.1 6.8 46.1 17.1 11.9 10.2 18.7 27.3 34.4 32.5 15.7 5.1 40.4-1.7 53.1 5.8 12.8 7.4 13.5 29.2 18.8 45.6 5.3 16.4 15.1 27.5 21.9 41.3 6.9 13.8 10.8 30.2 14.7 46.7H0Z" fill="#00393a"/></svg>